<svg xmlns="http://www.w3.org/2000/svg" viewBox="0 0 644.07 618.24"><defs><style>.cls-1{fill:#fff;}</style></defs><title>Asset 1</title><g id="Layer_2" data-name="Layer 2"><g id="Layer_1-2" data-name="Layer 1"><path class="cls-1" d="M46.05,159.57c-2,7.56-4.47,11.73-10.73,13.46a57.51,57.51,0,0,0-14,6.42C6.28,188.51,4.22,204.79,17,217a81.26,81.26,0,0,0,17.71,12.49c29.62,15.9,61.18,26.71,93.89,34.13C183.07,276,238.27,283.53,294,288.11c59.7,4.92,119.13,1.61,178.64-3.28,40.23-3.31,79.41-11,117.35-24.7,9.1-3.28,17.79-7.85,26.34-12.43a46.68,46.68,0,0,0,11.19-8.84c9.47-9.81,9.7-22.55,0-32.15a60.67,60.67,0,0,0-16.39-11.23c-5-2.37-8-5.37-9.24-10.51,29.08,2.38,47.39,26.2,40.89,51-2.81,10.69-7.83,21-9.34,31.77-1.87,13.33-1.24,27-1.49,40.58-.17,8.79-.17,17.6.07,26.38.4,15.26-5.91,27.19-19.34,33.81a297.8,297.8,0,0,1-41.35,16.58c-40,12.74-81.27,19.51-123,23.53a913,913,0,0,1-131.15,3.36c-88.43-4.16-175.29-16.73-258.24-49.39C47.26,358,36.07,352,25.14,345.8S9.2,330.39,9.68,317.33c.73-19.48-.24-39,.22-58.51.43-17.91-4.81-34.7-8.65-51.8C-2.49,190.4,2,178.89,17,171.09,25.81,166.51,35.53,163.67,46.05,159.57ZM251.93,336.48l1.5-.38c6.75,14.43,13.53,28.85,20.23,43.3,3.62,7.83,3.55,7.86,12.9,7.08.19-.32.56-.64.56-1,.07-24.83.16-49.66,0-74.49,0-1.16-1.95-2.93-3.29-3.31-2-.56-4.35-.14-7.06-.14v51c-7.83-15.47-14.67-31.14-21.51-46.8-3.22-7.37-4.66-8.13-13.09-6.72v77.87l9.75,1.39Zm-35.62,9.79c8.48-7.53,12.55-18.82,10-28.46-2.73-10.25-10.57-15-20.15-17.35-5.9-1.43-12-2.19-18.86-3.41v68.51c0,10.44,0,10.44,10.3,11.16.17,0,.34-.15,1.29-.59V345.6c5.09-.89,7.4.91,8.76,5.1,2.4,7.42,5.28,14.69,8,22,3.13,8.44,4.2,9.06,14.11,8C225.28,369.29,220.87,358,216.31,346.27Zm272.48,33.81c9.6-.91,9.6-.91,9.6-9.46v-31.1l1.21-.17,17.1,35.7,9-2.4V300.57c-8.92.31-8.92.31-8.92,8.6v36.66c-6-11.44-10.93-23-15.82-34.57-3.12-7.4-3.69-7.63-12.2-4.73ZM58.51,301.52l1.1,0c4.42,12.56,9.21,25,13.08,37.72,1.87,6.14,5.5,8.46,11.58,9.22V279.29c0-7.36-.86-8.18-9.16-8.55v44a10.07,10.07,0,0,1-2.32-4.45c-4.16-13.88-8.63-27.68-12.31-41.69-1.45-5.56-4.61-7.77-10-8.91-.1,2.1-.25,3.94-.25,5.78q0,31.85,0,63.68c0,6.82.74,7.57,8.33,8.39v-36Zm368.42,47.27c1.74,8.1,2.54,16.82,5.55,24.7,5.17,13.55,20.7,16.75,31.44,6.88a32.4,32.4,0,0,0,8.14-11.54,65.44,65.44,0,0,0,1.68-43.21c-3.19-10.8-9.73-15.92-19.56-16.32-10.36-.42-18.34,4.41-21.91,14.95C429.67,331.92,428.74,340.16,426.93,348.79Zm-80,40.56a8.66,8.66,0,0,0,0-2.16c-6.46-24.49-13.06-48.93-19.34-73.46-1.28-5-4.79-3.68-8-4.14-3.86-.55-3.8,2.42-4.3,4.65-3.64,16-7.17,32-10.75,47.94q-2.83,12.66-5.74,25.34c9.2,1.44,9.2,1.43,11-6.34.64-2.73,1.32-5.45,1.95-8.05,4.41,0,8.42.27,12.38-.06,6.39-.54,9.4,1.95,10.6,8.47C336.45,390.55,337.2,390.62,346.93,389.35ZM173.35,306.29c0-2.82.3-5.13-.1-7.31-.29-1.55-1.29-4-2.37-4.21-10.56-2.38-21.19-4.38-32.44-6.61,0,25.36,0,50,.1,74.61a3.69,3.69,0,0,0,2.11,2.78c10.67,2.43,21.39,4.66,32.44,7,.12-2,.11-3.1.27-4.21.75-5.15-.55-8.12-6.6-8.59-5.61-.44-11.12-2.25-16.8-3.48V335.8l16.64,3.12V326.18c-4.46-.95-8.8-1.62-13-2.91-1.56-.48-3.72-2.3-3.82-3.64-.43-5.66-.19-11.37-.19-17.48ZM564,361.36c5.37-.6,8.39-1.74,7.38-8.16-1.6-10.17-1.91-20.53-2.87-30.81-1-10.61-2.1-21.22-3.13-31.63-8.44-.07-11.93,3.82-13.49,11.67-3.39,17-7.88,33.8-11.91,50.68-1.31,5.46-2.59,10.91-3.9,16.47,7.21.1,10.65-2.74,11.22-9.3a7.37,7.37,0,0,1,3.39-5.17c3.69-1.75,7.8-2.61,11.86-3.86C563,354.9,563.49,358.05,564,361.36ZM396.45,311.17H347.72v11.25h19v67.3h10.83V322.19h18.91Zm9.7-.11v77.51H418V311.06ZM94,276c0,4.33-1.32,9,.29,10.45,3,2.76,7.62,3.66,12,5.5,0,19.07.27,38.34-.15,57.6-.14,6.24,1.93,8.74,8.77,8.41V294l15.33,3.45c0-2.78.34-5.1-.11-7.26-.35-1.7-1.34-4.25-2.6-4.64C116.55,282.22,105.54,279.27,94,276Zm503.28,3c-9.49,1.42-10.21,2.21-10.21,10.85v63.22l21.87-10.6c9-4.37,9-4.37,7.61-15.25l-19.27,9.55ZM36.17,326.78V259.23c0-8.74,0-8.74-9.44-11.85v68.18C26.73,323.81,26.79,323.89,36.17,326.78Z"/><path class="cls-1" d="M325.42,261.88H297.68c0-5-.21-9.51,0-14,2.57-48.28,4.82-96.59,8-144.83,2.08-31.84,5.57-63.58,8.19-95.39.4-4.88,1.78-7.27,7.08-7,4.15.23,8.35-.41,13.11-.7,9.94,29.78,13.83,60.55,18,91.27l1.94-.15c-1.55-29.65-3.11-59.3-4.72-89.88,6.64.89,13.94,1.65,21.13,3,1.25.24,2.81,2.91,2.9,4.54,2.2,36,5.21,72.07,6,108.15.64,31.5-1,63.06-2.28,94.56-.7,16.94-2.78,33.82-4.25,51H350.11Q341.68,185.71,333.27,109C327.17,159.82,326.38,210.87,325.42,261.88Z"/><path class="cls-1" d="M400.89,606.38c-1.27-27.06-2.5-53.3-3.73-79.55l-2,0c-.66,6-1.23,11.94-2,17.88-2.71,20.84-5.4,41.68-8.4,62.47-.23,1.54-2.69,3.54-4.43,3.93-6.88,1.56-13.89,2.56-22.1,4,10.83-62.66,17.57-125.15,18.58-189.5,6.94,0,13.39-.23,19.8.19,1.28.09,3.11,2.53,3.46,4.15,3.95,18.06,7.67,36.18,11.41,54.29a45.13,45.13,0,0,0,2,8.27c6.2-22.16,6-45,8.23-68.21L446.42,422c-.61,11-1,21.42-1.81,31.83-3.84,47.86-10.95,95.21-22.53,141.86-.79,3.19-1.95,5-5.23,5.82C411.52,602.9,406.31,604.71,400.89,606.38Z"/><path class="cls-1" d="M307.58,618.12l-20.74-2c-1.17-30-2.33-60-3.52-90.58h-20.1c1,14.76,1.58,29.6,3,44.36,1.41,14.57,3.62,29.07,5.61,44.59-7.74-1.55-15.21-2.8-22.5-4.75-1.38-.37-2.7-3.46-2.9-5.41-2.48-23.77-5.88-47.51-6.81-71.34-1.42-36.46-1.11-73-1.52-109.48,0-1.13.12-2.26.23-4.22L262,421.81v78.42h22.5c1.19-24.91,2.39-50.18,3.63-76.12l24.39,1.3C310.84,489.67,309.22,553.41,307.58,618.12Z"/><path class="cls-1" d="M386.43,6.74c9.49,2.95,18,5.13,26.12,8.23,9.8,3.73,19.26,8.35,28.95,12.37,3.7,1.53,5.77,3.7,6.22,7.87,1,9.07,2.39,18.09,3.77,28.15-11.63-4.27-20.88-11.36-33-11.94.68,21.67,1.33,42.6,1.95,62.44,8.86,3.67,16.77,6.81,24.56,10.24,3.8,1.68,5.6,4.76,5.46,9.17-.23,7.42-.06,14.85-.06,22.29l-29.74-10.14v86.34h21.51c-.6,9.73-1.18,19-1.81,29L389,263.06C394.33,177.54,399,92.84,386.43,6.74Z"/><path class="cls-1" d="M186.11,31.51c-7,18.81-14.26,37.62-21,56.62-11.7,33.13-21.24,66.88-27.46,101.5a34.17,34.17,0,0,0-.49,10.8c.29,2,2.42,4.9,4.1,5.2s5-1.77,5.58-3.49a84.37,84.37,0,0,0,3.68-15.51c8.19-53.9,24.16-105.47,46-155.34,2.13-4.86,4.9-7.71,9.91-9,4.68-1.26,9.22-3.08,14.91-5-4.67,11.91-9,22.41-12.93,33.07C193.2,91.59,183.76,134.42,175,177.44c-2.27,11.21-4.15,22.54-7.16,33.55a56.22,56.22,0,0,1-8.13,16.87c-6.49,9.36-15.62,14-27.28,11.25-11.38-2.66-21.24-12.36-21.51-24a138.42,138.42,0,0,1,3.82-33.25C124.37,139.31,141,99.13,157,58.68,162.71,44.26,170.64,34.54,186.11,31.51Z"/><path class="cls-1" d="M445.46,225.51c7.29-5.26,14.38-10.37,21.51-15.53,2.73,3.81,5.12,7.69,8.06,11.09s6.81,5.47,11.73,4,7.53-4.86,8.55-9.75c2.07-9.92.33-19.68-3.27-28.66a298.71,298.71,0,0,0-17.1-35.4c-8.49-15.1-19.42-29.1-22.5-46.59-1.38-7.88-2-16.62,0-24.23,5.62-22.08,33.45-31.9,51.5-18,7.94,6.12,13.64,15.19,20.19,23.07a5.2,5.2,0,0,1,.64,4.2c-2.79,8.69-5.81,17.3-8.91,26.4-4.37-5.49-7.92-10.94-12.48-15.36a47.88,47.88,0,0,0-14.29-10c-3-1.27-8.32-.31-10.91,1.75-1.92,1.54-2.22,6.81-1.29,9.82,1.66,5.38,4.5,10.48,7.36,15.39C494.76,135.8,506,153.58,516.07,172c7.44,13.51,11.61,28.12,10.31,44C524.16,243,498,262.37,473.43,254.57,459.1,250,451.84,238.45,445.46,225.51Z"/><path class="cls-1" d="M266.51,6.47c-2,9.31-3.66,17.74-5.66,26.08-.42,1.76-1.76,4.25-3.18,4.67-14.23,4.15-20.4,15.32-21.43,28.25-1,12.37.74,25.13,2.63,37.51,2.78,18.27,7.76,36.24,10,54.56,2.79,23.05-.1,45.85-9.68,67.26-7.36,16.45-19,27.72-38.51,27.47-13.66-.17-23.58-6.85-30.15-18.56a6.78,6.78,0,0,1,.08-5.59c4-7.57,8.46-14.94,12.95-22.74,2.52,3.73,4.59,7.51,7.34,10.7,7,8.18,14.76,8.29,21.93.22,8.91-10,10.26-22.69,11.4-35.3,1.42-15.89-3.07-31-6-46.36-3.46-18-7.16-36.07-8.19-54.26C208.43,52.79,220.71,30.47,241.66,13,248.54,7.31,256.84,4.6,266.51,6.47Z"/><path class="cls-1" d="M516.05,412c0,7.63.2,14.86-.17,22.06-.07,1.35-2.19,3.29-3.73,3.76-8.57,2.59-17.3,4.7-25.88,7.26-1.67.5-4.07,2.14-4.22,3.48-1,8.49-1.41,17-2.1,26.79l27.63-9.24c-.66,7.67-1.11,14.85-2,22-.2,1.55-1.83,3.32-3.28,4.22-7.11,4.44-14.4,8.59-21.58,12.93-1.37.83-3.42,2-3.57,3.16-1.43,11.29-2.51,22.62-3.87,35.63l39.32-24.06c0,9.64.07,19.61-.11,29.57,0,1-1.36,2.23-2.36,3a310.2,310.2,0,0,1-70.29,40.43c-.29.12-.71-.06-1.48-.15,2.71-15,5.55-29.93,8.11-44.91,7-40.86,12.73-81.87,14.17-123.36.09-2.5.07-4.22,3.36-4.71,16.8-2.49,33.56-5.27,50.34-7.92A8,8,0,0,1,516.05,412Z"/><path class="cls-1" d="M302.61,1.89c-15.33,85.9-18.61,171.81-22,258.65l-27.19-1.81c.8-22.32,1.15-44.07,2.47-65.75,1.69-27.84,3.3-55.73,6.51-83.42C266.25,76,271.83,42.67,276.53,9.21c.53-3.81,2.2-4.93,5.87-5.14C288.84,3.7,295.24,2.72,302.61,1.89Z"/><path class="cls-1" d="M104.92,147.71c10.23,19.91-.49,48.21-11.68,58.75-10.19,9.59-24.32,12.36-37.1,6.63-4.17-1.87-8.25-4-12.35-6-6.79-3.4-8.12-5.34-5.42-12.66A386.77,386.77,0,0,1,53.43,158C69.28,125.7,89.1,96.2,117.18,73a68.06,68.06,0,0,1,8.26-6.15c4.09-2.46,7.43-1.16,8,3.47,2.34,19.77,2.05,39.31-7.24,57.63C121.6,136.94,114.42,143.33,104.92,147.71ZM82.62,149a19.24,19.24,0,0,0-2.14,3c-4.84,10.56-9.72,21.11-14.37,31.76-2.06,4.72.17,7.49,5.18,6.32a10.12,10.12,0,0,0,5.93-4C84.12,174.69,83.71,162,82.62,149Zm36-55.45-1.49-.92c-6.1,8.79-12.3,17.52-18.22,26.43-1.09,1.64-1.06,4-1.55,6.07,2.43-.41,5.59,0,7.17-1.38C113.67,115.77,117.53,105.22,118.65,93.56Z"/><path class="cls-1" d="M110.79,531.39c-6.66-6.76-14-13-19.69-20.51-2.7-3.53-2.74-9.35-3.31-14.21-2.19-18.59-4.09-37.22-6.12-55.83-.1-.92-.37-1.82-.56-2.73l-1.57-.22c-1.59,9.24-3.19,18.47-5,28.83C64.44,455.38,62.1,441.38,56.4,429c1.55,19.25,8.88,36.74,15.4,55.18-3.85-3.28-8.52-6-11.42-9.93-24.78-34-36.21-72.38-36.88-114.2a6.51,6.51,0,0,1,.48-1.48c6.42,2.93,12.93,5.59,19.09,8.9,1.64.88,2.52,3.63,3.25,5.7,4.87,13.75,11.07,26.75,21.27,39.34l15.2-29.15,18.29,6.35c-6,47.74,2,94.37,11.17,140.92Z"/><path class="cls-1" d="M186.86,587.41c-9.78-6-19.22-11.76-28.49-17.73-1.4-.91-2.37-2.92-2.91-4.61-1.73-5.45-3.19-11-4.71-16.5-2.63-9.56-3.55-10.46-14.62-13.4.92,6.4,1.8,12.49,2.9,20.17-7.05-6-13.88-10.36-18.75-16.36-2.74-3.37-2.4-9.35-3.22-14.19-6.51-38.4-4.58-91.54,4.77-128.27,5.58,1.42,11.23,2.74,16.79,4.39.87.25,1.79,1.93,1.9,3,6.25,62.94,22.26,123.34,46.94,181.5C187.51,585.55,187.37,585.76,186.86,587.41ZM139.69,504.6c-2.78-14.67-5.47-28.85-8.31-43.8,0,12,.23,23-.09,34.11C131.13,500.47,133.3,503.46,139.69,504.6Z"/><path class="cls-1" d="M215.51,454.93c-2.45-2.89-4.23-5.37-6.4-7.45-5.08-4.84-9.39-4.17-11.91,2.28a53.85,53.85,0,0,0-3.56,14.37,223.7,223.7,0,0,0,6.67,79.47,57.4,57.4,0,0,0,6.27,14.63c4,6.68,8,6.54,12.78.33.57-.75,1.13-1.51,2.07-2.74,5.38,4,10.7,7.93,15.85,12a4,4,0,0,1,.91,3.41c-2.51,9.12-6.14,17.71-13.28,24.27-5,4.64-9,4.9-15,1.35-10.2-6-16.27-15.39-21.1-25.72-8.68-18.54-12.79-38.32-14.87-58.51-1.31-12.72-2.08-25.52-2.29-38.3-.28-16.07,3.1-31.47,11.08-45.62,9.83-17.42,22.45-19.41,37.11-5.71,3.32,3.1,6,6.85,9.32,10.63Z"/><path class="cls-1" d="M537.79,205.31c5.07,2.77,9.35,5.88,14.14,7.52a47.78,47.78,0,0,0,15.53,2.58c4.55,0,7.4-3.52,8.23-8.2s-.88-8-5-9.93a76.81,76.81,0,0,0-9-3.51c-12.21-4.06-23-10.29-31.3-20.31-8.67-10.47-11.34-22.4-7.52-35.43A25.28,25.28,0,0,1,564,126.35c8.71,7.78,13.41,17.32,11,29.71-4.19-2.85-8.07-5.87-12.3-8.28-6.39-3.63-12.13-3.07-14.42.92-2.88,5-.54,12.37,5.73,15.44,4.91,2.41,10.34,3.8,15.63,5.38,12.37,3.7,22.9,9.84,28.36,22.17s5.51,24.67-3.61,35.52c-9.72,11.56-22.19,17.22-37.21,12.94-7.58-2.16-14.57-6.46-21.68-10.08a4.73,4.73,0,0,1-1.85-4C534.8,219.32,536.3,212.62,537.79,205.31Z"/><path class="cls-1" d="M337.06,426.52h22.37c0,15.72.89,31-.18,46.21-2.34,33.34-5.38,66.64-8.75,99.89-1.37,13.46-4.27,26.76-6.7,40.09-.25,1.43-1.82,3.54-3,3.73-6,.92-12.07,1.3-17.43,1.8C327.93,554.2,332.47,490.68,337.06,426.52Z"/><path class="cls-1" d="M522,531.47c0-8.71-.15-17,.14-25.36,0-1.48,1.72-3.15,3-4.3,4.15-3.65,8.91-6.7,12.64-10.71,8.42-9,9.15-20,2.59-30.49a64.32,64.32,0,0,0-5.63-7.94c-15.08-17.41-2.62-41.86,13.5-47.83a90.79,90.79,0,0,1,40.56-5.14c4.34.41,8.64,1.26,14.79,2.18-4.06,7.6-7.56,14.4-11.38,21-.46.79-2.61.85-4,.84-7.8,0-15.62-.61-23.39-.18-4.77.26-9.47,2.06-11.19,7.47s1.6,8.66,4.79,12c.78.84,1.64,1.6,2.45,2.41,14.18,14.15,16.55,27.1,7.64,45-9.41,18.94-24.82,31.64-43.68,40.5A13.54,13.54,0,0,1,522,531.47Z"/><path class="cls-1" d="M37.84,182.06c-2.54,2.84-4.72,6.11-7.67,8.42-7.37,5.76-8.34,12.07-.51,17.13a255.78,255.78,0,0,0,35.55,19.44c36.74,16.17,75.43,25.63,115,32,54.22,8.68,108.7,14.66,163.62,16,60.53,1.5,120.8-1.8,180.43-12.65,27.83-5.07,55.18-12.3,80.41-25.79a56.93,56.93,0,0,0,7.75-4.86c9.14-7,9-14.69-.59-21.2-2.76-1.88-5.62-3.34-3.61-7.41a3.67,3.67,0,0,1,1.16.15c20.07,10.55,20.9,24.1,1.86,36.34-17.9,11.5-38.15,17.37-58.42,22.92-34.05,9.32-69,13.24-104,16.23a950.85,950.85,0,0,1-120.31,2.43c-56.43-2.34-112.33-9.08-167.89-19.07C120.69,255,82.37,243,46,225.08A107.08,107.08,0,0,1,25,211.41c-11.3-9.44-10.19-18.95,2.35-26.51,2.88-1.73,6-3.05,9-4.55Z"/><path class="cls-1" d="M198.82,311.1c10.9-.24,17.8,5.93,17.5,15-.19,5.9-3,8.23-8.74,7.28-8.76-1.44-8.76-1.44-8.76-10.49Z"/><path class="cls-1" d="M438.11,345.41c1-5.29,1.6-10.8,3.12-16,1.58-5.41,5.51-8.51,11.47-8.55,5.74,0,8.75,3.57,10.31,8.32a54.64,54.64,0,0,1-.35,35.32c-1.8,5.32-5.87,8.48-11.77,8.2-5.61-.28-8.59-4-9.72-9C439.82,357.77,439.14,351.73,438.11,345.41Z"/><path class="cls-1" d="M329.64,363.44l-15.49-.94c2.26-9.83,4.44-19.31,7-30.46Z"/><path class="cls-1" d="M551.46,343c2.52-10.35,4.86-20,7.21-29.67l1,0c.73,7.95,1.6,15.88,2,23.85.06,1.18-1.82,2.87-3.19,3.61C556.57,341.8,554.3,342.15,551.46,343Z"/></g></g></svg>