<?xml version="1.0" encoding="utf-8"?>
<!-- Generator: Adobe Illustrator 22.0.0, SVG Export Plug-In . SVG Version: 6.00 Build 0)  -->
<svg version="1.1" id="Layer_1" xmlns="http://www.w3.org/2000/svg" xmlns:xlink="http://www.w3.org/1999/xlink" x="0px" y="0px"
	 viewBox="0 0 24 24" style="enable-background:new 0 0 24 24;" xml:space="preserve">
<style type="text/css">
	.st0{fill:none;}
	.st1{fill:#FFFFFF;}
</style>
<path class="st0" d="M0,0h24v24H0V0z"/>
<path class="st1" d="M18,8h-1V6c0-2.8-2.2-5-5-5S7,3.2,7,6v2H6c-1.1,0-2,0.9-2,2v10c0,1.1,0.9,2,2,2h12c1.1,0,2-0.9,2-2V10
	C20,8.9,19.1,8,18,8z M12,17c-1.1,0-2-0.9-2-2s0.9-2,2-2s2,0.9,2,2S13.1,17,12,17z M15.1,8H8.9V6c0-1.7,1.4-3.1,3.1-3.1
	s3.1,1.4,3.1,3.1V8z"/>
</svg>
