<?xml version="1.0" encoding="utf-8"?>
<!-- Generator: Adobe Illustrator 22.0.0, SVG Export Plug-In . SVG Version: 6.00 Build 0)  -->
<svg version="1.1" id="Layer_1" xmlns="http://www.w3.org/2000/svg" xmlns:xlink="http://www.w3.org/1999/xlink" x="0px" y="0px"
	 viewBox="0 0 24 24" style="enable-background:new 0 0 24 24;" xml:space="preserve">
<style type="text/css">
	.st0{fill:none;}
	.st1{fill:#FFFFFF;}
</style>
<path class="st0" d="M0,0h24v24H0V0z"/>
<path class="st1" d="M9.9,9.8c0,0.5-0.3,0.8-0.8,0.8c-0.6,0-0.8-0.3-0.8-0.8C8.3,9.3,8.5,9,9.1,9C9.6,9,9.9,9.3,9.9,9.8z"/>
<path class="st1" d="M12,2C6.5,2,2,6.5,2,12s4.5,10,10,10s10-4.5,10-10S17.5,2,12,2z M10.1,16.3H8.8v-0.1l4.1-7.4h-1.7
	c0.1,0.3,0.2,0.6,0.2,1c0,1.4-0.9,2.2-2.3,2.2c-1.4,0-2.4-0.8-2.4-2.2c0-1.4,0.9-2.2,2.4-2.2c0.3,0,0.5,0,0.8,0.1h4.9v0.1L10.1,16.3
	z M14.5,16.4c-1.4,0-2.3-0.8-2.3-2.2c0-1.4,0.9-2.2,2.3-2.2c1.4,0,2.3,0.8,2.3,2.2C16.8,15.6,15.9,16.4,14.5,16.4z M14.5,13.3
	c-0.6,0-0.8,0.3-0.8,0.8c0,0.6,0.2,0.9,0.8,0.9c0.5,0,0.8-0.3,0.8-0.9C15.3,13.6,15,13.3,14.5,13.3z"/>
</svg>
